/* XPM */
static char *pigsmall[] = {
/* columns rows colors chars-per-pixel */
"128 128 49 1 ",
"  c #00040A",
". c #8C4548",
"X c #9E4E52",
"o c #BE7A7F",
"O c #C17E7E",
"+ c #BE9381",
"@ c #BE9792",
"# c #C58181",
"$ c #CD8686",
"% c #D18A8A",
"& c #D9918F",
"* c #E38288",
"= c #EE888E",
"- c #EC9595",
"; c #E39896",
": c #E99B9B",
"> c #EC9F9B",
", c #EE999F",
"< c #ED9F9E",
"1 c #F4999C",
"2 c #F09F9F",
"3 c #CBA29C",
"4 c #EBA59F",
"5 c #ED9BA2",
"6 c #EF9BA2",
"7 c #E99DA0",
"8 c #EF9FA5",
"9 c #F39AA1",
"0 c #F59CA3",
"q c #EEA0A2",
"w c #EEA4A3",
"e c #EDA1A4",
"r c #EDA3A4",
"t c #EEA6A4",
"y c #EDA4A8",
"u c #EDA8A9",
"i c #F1A1A1",
"p c #F2A1A1",
"a c #F1A7A6",
"s c #FCA3A7",
"d c #F2A1A8",
"f c #F5ACA9",
"g c #F6AEAD",
"h c #F7AFAF",
"j c #F0B0AE",
"k c #E5B6BA",
"l c #F8B0B0",
"z c #F0BFC3",
"x c #F8FFFF",
/* pixels */
"&&&&&&&&&&&&&&&&********----------------------------------------444444444444444444444444>>>>>>>>:777777777777777tttttttttttttttt",
"&&&&&&&&&&&&&&&&********----------------------------------------44444444444444444444444>>>>>>>>>7777777777777777tttttttttttttttt",
"&&&&&&&&&&&&&&&&********----------------------------------------4444444444444444444444>>>>>>>>>>7777777777777777tttttttttttttttt",
"&&&&&&&&&&&&&&&&********----------------------------------------444444444444444444444>>>>>>>>>>>7777777777777777tttttttttttttttt",
"&&&&&&&&&&&&&&&&********----------------------------------------44444444444444444444>>>>>>>>>>>>7777777777777777tttttttttttttttt",
"&&&&&&&&&&&&&&&&*********---------------------------------------4444444444444444444>>>>>>>>>>>>>7777777777777777tttttttttttttttt",
"&&&&&&&&&&&&&&&&**********--------------------------------------444444444444444444>>>>>>>>>>>>>>7777777777777777tttttttttttttttt",
"&&&&&&&&&&&&&&&&***********-------------------------------------4444444444444444w>>>>>>>>>>>>>>>7777777777777777tttttttttttttttt",
";;;;&&&&&&&&&&&&************------------------------------------5555555544444444>>>>>>>>>>>>>>>>777777777777hhhhtttttttttttttttt",
";;;;;&&&&&&&&&&&*************----------------------------------55555555554444444>>>>>>>>>>>>>>>>77777777777hhhhhjttttttttttttttt",
";;;;;;&&&&&&&&&&**************--------------------------------555555555595444444>>>>>>>>>>>>>>>>7777777777hhhhhhjjtttttttttttttt",
";;;;;;;&&&&&&&&&***************------------------------------5555555555555944444>>>>>>>>>>>>>>>>777777777hhhhhhhjjjttttttttttttt",
";;;;;;;;&&&&&&&&****************----------------------------55555555555555554444>>>>>>>>>>>>>>>>77777777hhhhhhhhjjjjtttttttttttt",
";;;;;;;;;&&&&&&&****************---------------------------555555555555559595444>>>>>>>>>>>>>>>>7777777hhhhhhhhhjjjjjttttttttttt",
";;;;;;;;;;&&&&&&****************--------------------------5555555555555595555944>>>>>>>>>>>>>>>>777777hhhhhhhhhhjjjjjjtttttttttt",
";;;;;;;;;;;&&&&&****************-------------------------55555555555555595595554>>>>>>>>>>>>>>>>77777hhhhhhhhhhhjjjjjjjttttttttt",
";;;;;;;;;;;;;;;;****************222222222222222288888888555555555555555555559559dddddddddddddddd7777hhhhhhhhhhhhjjjjjjjjjjjjjjjj",
";;;;;;;;;;;;;;;;****************222222222222222288888888555555555555555595955555dddddddddddddddd777hhhhhhhhhhhhhjjjjjjjjjjjjjjjj",
";;;;;;;;;;;;;;;;****************222222222222222288888888555555555555555555599599dddddddddddddddd77hhhhhhhhhhhhhhjjjjjjjjjjjjjjjj",
";;;;;;;;;;;;;;;;****************222222222222222288888888555555555555555595555555dddddddddddddddd7hhhhhhhhhhhhhhhjjjjjjjjjjjjjjjj",
";;;;;;;;;;;;;;;;****************222222222222222288888888555555555555555595555555ddddddddddddddddhhhhhhhhhhhhhhhhjjjjjjjjjjjjjjjj",
";;;;;;;;;;;;;;;;****************222222222222222288888888855555555555555555599959ddddddddddddddddhhhhhhhhhhhhhhhhjjjjjjjjjjjjjjjj",
";;;;;;;;;;;;;;;;****************222222222222222288888888885555555555555559555555ddddddddddddddddhhhhhhhhhhhhhhhhjjjjjjjjjjjjjjjj",
";;;;;;;;;;;;;;;;****************222222222222222288888888888555555555555555959595ddddddddddddddddhhhhhhhhhhhhhhhhjjjjjjjjjjjjjjjj",
";;;;;;;;;;;;;;;;================22222222222222228888888888885555,,,,,,,,,,,,,,,,ddddddddddddddddhhhhhhhhhhhhhhhhjjjjjjjjjjjjjjjj",
";;;;;;;;;;;;;;;;================22222222222222228888888888888555,,,,,,,,,,,,,,,,ddddddddddddddddhhhhhhhhhhhhhhhhjjjjjjjjjjjjjjjj",
";;;;;;;;;;;;;;;;================22222222222222228888888888888855,,,,,,,,,,,,,,,,ddddddddddddddddhhhhhhhhhhhhhhhhjjjjjjjjjjjjjjjj",
";;;;;;;;;;;;;;;;================22222222222222228888888888888885,,,,,,,,,,,,,,,,ddddddddddddddddhhhhhhhhhhhhhhhhjjjjjjjjjjjjjjjj",
";;;;;;;;;;;;;;;;================22222222222222228888888888888888,,,,,,,,,,,,,,,,ddddddddddddddddhhhhhhhhhhhhhhhhjjjjjjjjjjjjjjjj",
";;;;;;;;;;;;;;;;===============p222222222222222288888888888888880,,,,,,,,,,,,,,,ddddddddddddddddhhhhhhhhhhhhhhhhjjjjjjjjjjjjjjjj",
";;;;;;;;;;;;;;;;==============pp22222222222222228888888888888888e85,,,,,,,,,,,,,ddddddddddddddddhhhhhhhhhhhhhhhhjjjjjjjjjjjjjjjj",
";;;;;;;;;;;;;;;;=============ppp22222222222222228888888888888888e88,,,,,,,,,,,,,ddddddddddddddddhhhhhhhhhhhhhhhhjjjjjjjjjjjjjjjj",
";;;;;;;;;;;;;;;;pppppppppppppppppppqppqppqppqqppyyyyyyyyyyyyyyyyeeeeeeeeeeeeeeeeeeeeeeeeeeeeeeeeuuuuuuuuuuuuuhhhjjjjjjjjjjjjjjjj",
";;;;;;;;;;;;;;;;pppppppppppppppppqppqppqppqppppqyyyyyyyyyyyyyyyyeeeeeeeeeeeeeeeeeeeeeeeeeeeeeeeeuuuuuuuuuuuuuuhhjjjjjjjjjjjjjjjj",
";;;;;;;;;;;;;;;;ppppppppppppppppqpqpqpppqqppqpqpyyyyyyyyyyyyyyyyeeeeeeeeeeeeeeeeeeeeeeeeeeeeeeeeuuuuuuuuuuuuuuuhjjjjjjjjjjjjjjjj",
";;;;;;;;;;;;;;;;ppppppppppppppppppqpppqqpppqppqpyyyyyyyyyyyyyyyyeeeeeeeeeeeeeeeeeeeeeeeeeeeeeeeeuuuuuuuuuuuuuuuujjjjjjjjjjjjjjjj",
";;;;;;;;;;;;;;;;ppppppppppppppppqppqpppppppqppqpyyyyyyyyyyyyyyyyeeeeeeeeeeeeeeeeeeeeeeeeeeeeeeeeuuuuuuuuuuuuuuuuujjjjjjjjjjjjjjj",
";;;;;;;;;;;;;;;;ppppppppppppppppqppqpqqpqqppqpqpyyyyyyyyyyyyyyyyeeeeeeeeeeeeeeeeeeeeeeeeeeeeeeeeuuuuuuuuuuuuuuuuuujjjjjjjjjjjjjj",
";;;;;;;;;;;;;;;;pppppppppppppppppppppqppppqppqppyyyyyyyyyyyyyyyyeeeeeeeeeeeeeeeeeeeeeeeeeeeeeeeeuuuuuuuuuuuuuuuuuuujjjjjjjjjjjjj",
";;;;;;;;;;;;;;;;pppppppppppppppppqqpqppqpqppqppqyyyyyyyyyyyyyyyyeeeeeeeeeeeeeeeeeeeeeeeeeeeeeeeeuuuuuuuuuuuuuuuuuuuujjjjjjjjjjjj",
";;;;;;;;;;;;;;;:pppppppppppppppppppqqppppqpqpppqyyyyyyyyeeeeeeeeeeeeeeeeeeeeeeeeeeeeeeeeeeeeeeeeuuuuuuuuuuuuuuuuuuuuujjjjjjjjjjj",
";;;;;;;;;;;;;;::ppppppppppppppppqqppppqqpppqpqppyyyyyyyyeeeeeeeeeeeeeeeeeeeeeeeeeeeeeeeeeeeeeeeeuuuuuuuuuuuuuuuuuuuuuujjjjjjjjjj",
";;;;;;;;;;;;;:::pppppppppppppppppppqpqppqppppqqpyyyyyyyyeeeeeeeeeeeeeeeeeeeeeeeeeeeeeeeeeeeeeeeeuuuuuuuuuuuuuuuuuuuuuuujjjjjjjjj",
";;;;;;;;;;;;::::pppppppppppppppppqpqppqppqqpppqpyyyyyyyyeeeeeeeeeeeeeeeeeeeeeeeeeeeeeeeeeeeeeeeeuuuuuuuuuuuuuuuuuuuuuuuujjjjjjjj",
";;;;;;;;;;;:::::ppppppppppppppppppqppqppqpppqqppyyyyyyyyeeeeeeeeeeeeeeeeeeeeeeeeeeeeeeeeeeeeeeeeuuuuuuuuuuuuuuuuuuuuuuuujjjjjjjj",
";;;;;;;;;;::::::ppppppppppppppppqpqpqppqppqqpppqyyyyyyyyeeeeeeeeeeeeeeeeeeeeeeeeeeeeeeeeeeeeeeeeuuuuuuuuuuuuuuuuuuuuuuuujjjjjjjj",
";;;;;;;;;:::::::ppppppppppppppppppppqppppqqppppqyyyyyyyyeeeeeeeeeeeeeeeeeeeeeeeeeeeeeeeeeeeeeeeeuuuuuuuuuuuuuuuuuuuuuuuujjjjjjjj",
";;;;;;;;::::::::ppppppppppppppppqqpqppqqppppqqppyyyyyyyyeeeeeeeeeeeeeeeeeeeeeeeeeeeeeeeeeeeeeeeeuuuuuuuuuuuuuuuuuuuuuuuujjjjjjjj",
";;;;            xxxxxxxxxxxx111111111<<<<<<<<<<<<<<<<<<<<<<<<<<<eeeeeeeeeeeeeeetttttteeeeeeeeeeeuuuuxxxxxxxxxxxx            jjjj",
";;              xxxxxxxxxxxxxx11111111<<<<<<<<<<<<<<<<<<<<<<<<<<eeeeeeeeeeeeeetttttttteeeeeeeeeeuuxxxxxxxxxxxxxx              jj",
";               xxxxxxxxxxxxxxx11111111<<<<<<<<<<<<<<<<<<<<<<<<<eeeeeeeeeeeeetttttttttteeeeeeeeeuxxxxxxxxxxxxxxx               j",
";               xxxxxxxxxxxxxxx111111111<<<<<<<<<<<<<<<<<<<<<<<<eeeeeeeeeeeetttttttttttteeeeeeeeuxxxxxxxxxxxxxxx               j",
"                xxxxxxxxxxxxxxxx111111111<<<<<<<<<<<<<<<<<<<<<<<eeeeeeeeeeetttttttttttttteeeeeeexxxxxxxxxxxxxxxx                ",
"                xxxxxxxxxxxxxxxx1111111111<<<<<<<<<<<<<<<<<<<<<<eeeeeeeeeetttttttttttttttteeeeeexxxxxxxxxxxxxxxx                ",
"                xxxxxxxxxxxxxxxx11111111111<<<<<<<<<<<<<<<<<<<<<eeeeeeeeetttttttttttttttttteeeeexxxxxxxxxxxxxxxx                ",
"                xxxxxxxxxxxxxxxx111111111111<<<<<<<<<<<<<<<<<<<<eeeeeeeetttttttttttttttttttteeeexxxxxxxxxxxxxxxx                ",
"                xxxxxxxxxxxxxxxx1111111111111<<<<<<<<<<<<<<<<<<<eeeeeeetttttttttttttttttttttttttxxxxxxxxxxxxxxxx                ",
"                xxxxxxxxxxxxxxxx11111111111111<<<<<<<<<<<<<<<<<<eeeeeettttttttttttttttttttttttttxxxxxxxxxxxxxxxx                ",
"                xxxxxxxxxxxxxxxx111111111111111<<<<<<<<<<<<<<<<<eeeeetttttttttttttttttttttttttttxxxxxxxxxxxxxxxx                ",
"                xxxxxxxxxxxxxxxx1111111111111111<<<<<<<<<<<<<<<<eeeettttttttttttttttttttttttttttxxxxxxxxxxxxxxxx                ",
"0               xxxxxxxxxxxxxxx01111111111111111<<<<<<<<<<<<<<<<eeetttttttttttttttttttttttttttttrxxxxxxxxxxxxxxx               e",
"0               xxxxxxxxxxxxxxx01111111111111111<<<<<<<<<<<<<<<<eetttttttttttttttttttttttttttttttxxxxxxxxxxxxxxx               r",
"00              xxxxxxxxxxxxxx001111111111111111<<<<<<<<<<<<<<<<etttttttttttttttttttttttttttttttttxxxxxxxxxxxxxx              er",
"0000            xxxxxxxxxxxx00001111111111111111<<<<<<<<<<<<<<<<tttttttttttttttttttttttttttttttttttrxxxxxxxxxxxx            rrrr",
"0000000000000000000000000000000000000000000kkzzzzzzzzzzzzzzzzzzzzzzzzzzzzzzzzzzzzzzzzghhhhhhhhhhhhhhhhhhhhhhhhhherrrrrrrrrrrrrrr",
"000000000000000000000000000000000000000000kkkkzzzzzzzzzzzzzzzzzzzzzzzzzzzzzzzzzzzzzzzzglhhhhhhhhhhhhhhhhhhhhhhhhrrrrrrrrrrrrrrrr",
"00000000000000000000000000000000000000000kkkkkkzzzzzzzzzzzzzzzzzzzzzzzzzzzzzzzzzzzzzzzzghhhhhhhhhhhhhhhhhhhhhhhhrrrrrrrrrrrrrrrr",
"0000000000000000000000000000000000000000kkkkkkkkzzzzzzzzzzzzzzzzzzzzzzzzzzzzzzzzzzzzzzzzhhhhhhhhhhhhhhhhhhhhhhhhrrrrrrrrrrrrrrrr",
"000000000000000000000000000000000000000kkkkkkkkkkzzzzzzzzzzzzzzzzzzzzzzzzzzzzzzzzzzzzzzzzhhhhhhhhhhhhhhhhhhhhhhhrrrrrrrrrrrrrrrr",
"00000000000000000000000000000000000000kkkkkkkkkkkkzzzzzzzzzzzzzzzzzzzzzzzzzzzzzzzzzzzzzzzzhhhhhhhhhhhhhhhhhhhhhhrrrrrrrrrrrrrrrr",
"0000000000000000000000000000000000000kkkkkkkkkkkkkkzzzzzzzzzzzzzzzzzzzzzzzzzzzzzzzzzzzzzzzzhhhhhhhhhhhhhhhhhhhhhrrrrrrrrrrrrrrrr",
"000000000000000000000000000000000000kkkkkkkkkkkkkkkkzzzzzzzzzzzzzzzzzzzzzzzzzzzzzzzzzzzzzzzzhhhhhhhhhhhhhhhhhhhhrrrrrrrrrrrrrrrr",
"0000000000000000000999999999qqqqqqqkkkkkkkkkkkkkkkkkkkkkkzzzzzzzzzzzzzzzzzzzzzzzzzzzzzzzzzzzzlllhhhghhhhhhhhhhhhrrrrrrrrrrrrrrrr",
"000000000000000000999999999qqqqqqqkkkkkkkkkkkkkkkkkkkkkkkkzzzzzzzzzzzzzzzzzzzzzzzzzzzzzzzzzzzzllhhjujhhhhhhhhhhhrrrrrrrrrrrrrrrr",
"00000000000000000999999999qqqqqqqkkkkkkkkkkkkkkkkkkkkkkkkkkzzzzzzzzzzzzzzzzzzzzzzzzzzzzzzzzzzzzlljjjjjhlhhhhhhhhrrrrrrrrrrrrrrrr",
"0000000000000000999999999qqqqqqqkkkkkkkkkkkkkkkkkkkkkkkkkkkkzzzzzzzzzzzzzzzzzzzzzzzzzzzzzzzzzzzzjjjjjjjlhhhhhhhhrrrrrrrrrrrrrrrr",
"000000000000000099999999qqqqqqqqkkkkkkkkkkkkkkkkkkkkkkkkkkkkkzzzzzzzzzzzzzzzzzzzzzzzzzzzzzzzzzzzjjjjjjjjhhhhhhhhrrrrrrrrrrrrrrrr",
"00000000000000009999999qqqqqqqqqkkkkkkkkkkkkkkkkkkkkkkkkkkkkkkzzzzzzzzzzzzzzzzzzzzzzzzzzzzzzzzzzjjjjjjjjhhhhhhhhlrrrrrrrrrrrrrrr",
"0000000000000000999999qqqqqqqqqqkkkkkkkkkkkkkkkkkkkkkkkkkkkkkkkzzzzzzzzzzzzzzzzzzzzzzzzzzzzzzzzzjjjjjjjjhhhhhhhhhhrrrrrrrrrrrrrr",
"000000000000000099999qqqqqqqqqqqkkkkkkkkkkkkkkkkkkkkkkkkkkkkkkkkzzzzzzzzzzzzzzzzzzzzzzzzzzzzzzzzjjjjjjjjhhhhhhhhhllrrrrrrrrrrrrr",
"qqqqqqqqqqqqqqqqqqqqqqqqqqqqqqqqXXXXXXXXXXXXXXXXqtttqttqtttqptqqaaaaaaaaaaaaaaaaXXXXXXXXXXXXXXXXjjjjjjjjjjjjjjjjjjjjrrrrrrrrrrrr",
"qqqqqqqqqqqqqqqqqqqqqqqqqqqqqqqqXXXXXXXXXXXXXXXXttqtqttqtqtt4tttaaaaaaaaaaaaaaaaXXXXXXXXXXXXXXXXjjjjjjjjjjjjjjjjjjjjjrrrrrrrrrrr",
"qqqqqqqqqqqqqqqqqqqqqqqqqqqqqqqqXXXXXXXXXXXXXXXXtqtqtpttqt4pqtttaaaaaaaaaafaaaaaXXXXXXXXXXXXXXXXjjjjjjjjjjjjjjjjjjjjjjrrrrrrrrrr",
"qqqqqqqqqqqqqqqqqqqqqqqqqqqqqqqqXXXXXXXXXXXXXXXXp4ttt4qtttqtttqqaaaaafaaaadaaaaaXXXXXXXXXXXXXXXXjjjjjjjjjjjjjjjjjjjjjjjrrrrrrrrr",
"qqqqqqqqqqqqqqqqqqqqqqqqqqqqqqqqXXXXXXXXXXXXXXXXtqtttqqttqqttqttaaaaaaaaaaaaaaaaXXXXXXXXXXXXXXXXjjjjjjjjjjjjjjjjjjjjjjjjrrrrrrrr",
"qqqqqqqqqqqqqqqqqqqqqqqqqqqqqqqqXXXXXXXXXXXXXXXXtqtqtttpttttttqtaaaaaaaaaaaaaaaaXXXXXXXXXXXXXXXXjjjjjjjjjjjjjjjjjjjjjjjjjrrrrrrr",
"qqqqqqqqqqqqqqqqqqqqqqqqqqqqqqqqXXXXXXXXXXXXXXXXqtqtqtt4qqtqq4ptaaaaaaaaaaaaaaaaXXXXXXXXXXXXXXXXjjjjjjjjjjjjjjjjjjjjjjjjjjrrrrrr",
"qqqqqqqqqqqqqqqqqqqqqqqqqqqqqqqqXXXXXXXXXXXXXXXX4tttqttqttt4tttqaaaaaaaaaaaaaaaaXXXXXXXXXXXXXXXXjjjjjjjjjjjjjjjjjjjjjjjjjjjrrrrr",
"qqqqqqqqqqqqqqqqqqqqqqqqqqqqqqqqXXXXXXXXXXXX....tqttt4tttttqtqqtaaaaaaaaaaaaaaaa....XXXXXXXXXXXXjjjjjjjjjjjjjjjjjjjjjjjjjjjjrrrr",
"qqqqqqqqqqqqqqqqqqqqqqqqqqqqqqqqXXXXXXXXXXX.....tqtqtpqtqqttttttaafaaaaaaaaafaaa.....XXXXXXXXXXXjjjjjjjjjjjjjjjjjjjjjjjjjjjjjrrr",
"qqqqqqqqqqqqqqqqqqqqqqqqqqqqqqqqXXXXXXXXXX......ttqtqqttttqt4ptqaaaaaaaaaaaaaaaa......XXXXXXXXXXjjjjjjjjjjjjjjjjjjjjjjjjjjjjjjrr",
"qqqqqqqqqqqqqqqqqqqqqqqqqqqqqqqqXXXXXXXXX.......qttptttqp4ttqttqaaaaaaaaaaaaaaaa.......XXXXXXXXXjjjjjjjjjjjjjjjjjjjjjjjjjjjjjjjr",
"qqqqqqqqqqqqqqqqqqqqqqqqqqqqqqqqXXXXXXXX........ttq4tqqtttqtqtttaaaaaaaaaaaaaaaa........XXXXXXXXjjjjjjjjjjjjjjjjjjjjjjjjjjjjjjjj",
"qqqqqqqqqqqqqqqqqqqqqqqqqqqqqqqqXXXXXXXX........qtttttttqtqttt4qaaaaaaaaaaaaaaaa........XXXXXXXXjjjjjjjjjjjjjjjjjjjjjjjjjjjjjjjj",
"qqqqqqqqqqqqqqqqqqqqqqqqqqqqqqqqXXXXXXXX........qt4tqttqtqtttqttaaaaaaaaaaaaaaaa........XXXXXXXXjjjjjjjjjjjjjjjjjjjjjjjjjjjjjjjj",
"qqqqqqqqqqqqqqqqqqqqqqqqqqqqqqqqXXXXXXXX........ttqtqtp4tttqtqttaaaaaaaaaaaaaaaa........XXXXXXXXjjjjjjjjjjjjjjjjjjjjjjjjjjjjjjjj",
"111111111111111111111111qqqqqqqqoooooooooooooooo########$$$$@@@@@@@@@@@@333333333333%%%%%%%%%%%%ffffffffffffffffgggggggggggggggg",
"1111111111111111111111111qqqqqqqoooooooooooooooo########$$$$$@@@@@@@@@@@33333333333%%%%%%%%%%%%%ffffffffffffffffgggggggggggggggg",
"11111111111111111111111111qqqqqqoooooooooooooooo########$$$$$$@@@@@@@@@@3333333333%%%%%%%%%%%%%%ffffffffffffffffgggggggggggggggg",
"111111111111111111111111111qqqqqoooooooooooooooo########$$$$$$$@@@@@@@@@333333333%%%%%%%%%%%%%%%ffffffffffffffffgggggggggggggggg",
"1111111111111111111111111111qqqqoooooooooooooooo########$$$$$$$$@@@@@@@@33333333%%%%%%%%%%%%%%%%ffffffffffffffffgggggggggggggggg",
"11111111111111111111111111111qqqooooooooooooooo########$$$$$$$$$$@@@@@@@33333333%%%%%%%%%%%%%%%%ffffffffffffffffgggggggggggggggg",
"111111111111111111111111111111qqoooooooooooooo########$$$$$$$$$$$$@@@@@@33333333%%%%%%%%%%%%%%%%ffffffffffffffffgggggggggggggggg",
"1111111111111111111111111111111qooooooooooooo########$$$$$$$$$$$$$$@@@@@33333333%%%%%%%%%%%%%%%%ffffffffffffffffgggggggggggggggg",
"11111111111111111111111111111111ooooooooooooOOOOOOOO$$$$$$$$$$$$$$$$@@@@33333333++++%%%%%%%%%%%%ffffffffffffffffgggggggggggggggg",
"11111111111111111111111111111111oooooooooooOOOOOOOO$$$$$$$$$$$$$$$$$$@@@33333333+++++%%%%%%%%%%%ffffffffffffffffgggggggggggggggg",
"11111111111111111111111111111111ooooooooooOOOOOOOO$$$$$$$$$$$$$$$$$$$$@@33333333++++++%%%%%%%%%%ffffffffffffffffgggggggggggggggg",
"11111111111111111111111111111111oooooooooOOOOOOOO$$$$$$$$$$$$$$$$$$$$$$@33333333+++++++%%%%%%%%%ffffffffffffffffgggggggggggggggg",
"11111111111111111111111111111111soooooooOOOOOOOO$$$$$$$$$$$$$$$$$$$$$$$$33333333++++++++%%%%%%%tffffffffffffffffgggggggggggggggg",
"11111111111111111111111111111111soooooooOOOOOOOO$$$$$$$$$$$$$$$$$$$$$$$$33333333++++++++%%%%%%%affffffffffffffffgggggggggggggggg",
"11111111111111111111111111111111ssooooooOOOOOOOo$$$$$$$$$$$$$$$$$$$$$$$$33333333++++++++%%%%%%aaffffffffffffffffgggggggggggggggg",
"11111111111111111111111111111111ssssooooOOOOOOO#$$$$$$$$$$$$$$$$$$$$$$$$33333333++++++++%%%%aaaaffffffffffffffffgggggggggggggggg",
"11111111111111111111111111111111ssssssssssssssssssssssssssssssssllllllllllllllllaataaaaaaaaaaaaaffffffffffffffffgggggggggggggggg",
"11111111111111111111111111111111ssssssssssssssssssssssssssssssssllllllllllllllllaaaaaaaaataaaaaaffffffffffffffffgggggggggggggggg",
"11111111111111111111111111111111ssssssssssssssssssssssssssssssssllllllllllllllllaaaaaaaaaaaaaaaaffffffffffffffffgggggggggggggggg",
"11111111111111111111111111111111ssssssssssssssssssssssssssssssssllllllllllllllllaaaaaaaaaaaaaaaaffffffffffffffffgggggggggggggggg",
"11111111111111111111111111111111sssssssssssssssssssssssssssssssslllllllllllllllllaaataaaaaaaaaatffffffffffffffffgggggggggggggggg",
"11111111111111111111111111111111ssssssssssssssssssssssssssssssslllllllllllllllllllaaaaaaaaaaaaaaffffffffffffffffgggggggggggggggg",
"11111111111111111111111111111111sssssssssssssssssssssssssssssslllllllllllllllllllllaaaaaaaaaaaaaffffffffffffffffgggggggggggggggg",
"11111111111111111111111111111111ssssssssssssssssssssssssssssslllllllllllllllllllllllaaaaaataaaaaffffffffffffffffgggggggggggggggg",
"1111111111111111111111111111111ssssssssssssssssssssssssssssslllllllllllllllllllllllllaaaaaaaaaaaffffffffffffffffgggggggggggggggg",
"111111111111111111111111111111ssssssssssssssssssssssssssssslllllllllllllllllllllllllllaaaaaaaaaaffffffffffffffffgggggggggggggggg",
"11111111111111111111111111111ssssssssssssssssssssssssssssslllllllllllllllllllllllllllllaaaataaaaffffffffffffffffgggggggggggggggg",
"1111111111111111111111111111ssssssssssssssssssssssssssssslllllllllllllllllllllllllllllllaaaaaaaaffffffffffffffffgggggggggggggggg",
"111111111111111111111111111sssssssssssssssssssssssssssssllllllllllllllllllllllllllllllllaaaaaaaaffffffffffffffffgggggggggggggggg",
"11111111111111111111111111ssssssssssssssssssssssssssssslllllllllllllllllllllllllllllllllaaaaaataffffffffffffffffgggggggggggggggg",
"1111111111111111111111111sssssssssssssssssssssssssssssllllllllllllllllllllllllllllllllllaaaaaaaaffffffffffffffffgggggggggggggggg",
"111111111111111111111111ssssssssssssssssssssssssssssslllllllllllllllllllllllllllllllllllaaataaarffffffffffffffffgggggggggggggggg"
};
