/* XPM */
static char *exit_final1685645550[] = {
/* columns rows colors chars-per-pixel */
"50 50 75 1 ",
"  c #185F27",
". c #1C632B",
"X c #226731",
"o c #256A34",
"O c #286B36",
"+ c #2C6E3A",
"@ c #2D703B",
"# c #31713E",
"$ c #357543",
"% c #397745",
"& c #3A7847",
"* c #397748",
"= c #3B794A",
"- c #417D4E",
"; c #457E51",
": c #4A8356",
"> c #4C845A",
", c #50875D",
"< c #53895E",
"1 c #558B61",
"2 c #5A8D66",
"3 c #5C8F68",
"4 c #5E916A",
"5 c #62936D",
"6 c #669571",
"7 c #6B9A75",
"8 c #6E9C79",
"9 c #729E7B",
"0 c #73A07D",
"q c #76A281",
"w c #7CA485",
"e c #7FA888",
"r c #80A788",
"t c #83AB8D",
"y c #8AAE92",
"u c #8EB096",
"i c #8FB198",
"p c #90B297",
"a c #93B59C",
"s c #9CBBA3",
"d c #A1BFA7",
"f c #A3BFA9",
"g c #A5C1AB",
"h c #A9C5AF",
"j c #ADC6B2",
"k c #AFC8B4",
"l c #B0C7B3",
"z c #B1CAB7",
"x c #B4CCBA",
"c c #B8CFBD",
"v c #BACFC0",
"b c #BED3C3",
"n c #C3D5C7",
"m c #C5D6C9",
"M c #C6D8CA",
"N c #C9D9CC",
"B c #CEDED3",
"V c #D2DFD5",
"C c #D4E0D6",
"Z c #D6E3D9",
"A c #DAE5DD",
"S c #DCE8DE",
"D c #DEE7E2",
"F c #DEE8E0",
"G c #E3ECE5",
"H c #E5EEE9",
"J c #E8EEEA",
"K c #ECF2ED",
"L c #F0F5EF",
"P c #EFF4F0",
"I c #F1F6F2",
"U c #F6F9F6",
"Y c #F8FAF7",
"T c #F7F9F8",
"R c #FFFFFF",
/* pixels */
"RRRRRRRRRRRRRRRRRRRRRRRRRRRRRRRRRRRRRRRRRRRRRRRRRR",
"RRRRRRRRRRRRRRRRRRRRRRRRRRRRRRRRRRRRRRRRRRRRRRRRRR",
"RRRRRRRRRRRRRRRRRRRRRRRRRRRRRRRRRRRRRRRRRRRRRRRRRR",
"RRRRRRRRRRRRRRRRRRRRRRRRRRRRRRRRRRRRRRRRRRRRRRRRRR",
"RRRRRRRRRRRRRRRRRRRRRRRRRRRRRRRRRRRRRRRRRRRRRRRRRR",
"RRRRRRRRRRRRRRRRRRRRRRRRRRRRRRRRRRRRRRRRRRRRRRRRRR",
"RRRRRRRRRRRRRRRRRRRRRRRRRRRRRRRRRRRRRRRRRRRRRRRRRR",
"RRRRRRRRRRRRRRRRRRRRRRRRRRRRRRRRRRRRRRRRRRRRRRRRRR",
"RRRRRRRRRRRRRRRRRRRRRRRRRRRRRRRRRRRRRRRRRRRRRRRRRR",
"RRRRRRRRRRRRRRRRRRRRRRRRRRRRRRRRRRRRRRRRRRRRRRRRRR",
"RRRRRRRRRRRRRRRRRRRRRRRRRRRRRRRRRRRRRRRRRRRRRRRRRR",
"RRRRRRRRRRRRRRRRRRRRRRRRRRRRRRRRRRRRRRRRRRRRRRRRRR",
"RRRRRRRRRRRRRRRRRRRRRRRRRRRRRRRRRRRRRRRRRRRRRRRRRR",
"RRRRRRRRRRRRRRRRRRRRRTIKHGFDAAAASGGSASSHPTRRRRTRRR",
"RRRRRRRRRKZmjar973<,>;;=========%%$%=%%%&->9kRRRRR",
"RRRRRRx9-+O@#=1tgxbmVZFGGKKKPKPJHHHKKKJFZmg9=%CRRR",
"RRRRn:.-wxZJURRRRRRRRRRRRRRRRRRRRRRRRRRRRRRRRr#KRR",
"RRRy.9VRRRRRRRRRRTRRRRRRTRRRRRRRRRRRUHnxURRRRR1wRR",
"RRa.bRRRTRRRRRRRRRRRRRRRRRDht7GRRHa72-<9LRRRTRu1RR",
"RHXdRTRRRRbwwTRRRKRHaRRRx7562NPRRbsNL8HRRRRRRRy1RR",
"Ra#URTRJy,3sZRRRR8CssRRIjARGwRRRRRRRU4KRRRRRRRy1RR",
"R52RRRRf9PRRRRRRRC:2JRRRRRRn8RRRRRURC4RRRRRRRRs;RR",
"R;wRTRRzgRTRRRRRRR02RRRRTRRj9RRRRRRRl0RRRRRRTRc#PR",
"R&tRRRRbeRTRRRRRRRrOHRRRRRRawRTRRRRRiaRRRRRRRRB+JR",
"R-wRRRRN7RRPxRRRRS,t2RRRRTRwtRRRRRRRqzRRRRRRRRB+JR",
"R:7RRRRA6Rs2sRRTRrtR>sRRRRRwaRGJRRRR7mRRRRRRTRm$IR",
"R<5RRRRG:7iKRRRRI>HRA=PRRRT4%2$pRRRR5CRRRRRRRRz=RR",
"R0:RRRRA>PRRRRRRmyRTRrtRRV6wgBKRRRRR5FRRRRRRRRy1RR",
"RsOKRTRA>RRRb5wRTRRRRRKRRYTRRRRRRRRI>IRRRRRRRR87RR",
"RN.mRRRI:Gg=$7BRRRRRRRRRRRRRRRRRRRRUgTRRRRRRRR1yRT",
"RI@tRRRR5+>gIRRRRRRRRRRRRRRRRRRRRRRRRRRRRRRRRR%zRR",
"RR8$TRRRjtRRRRRRRRRRRRRRRRRRRRRRRRRRTRTRRRRRRg+KRR",
"RRm kRRRRRRRRRRTRRTRRRRTRRRRRRRRRRRRRRRRRRHj2XjRRR",
"RRR2$TRRRRRRRRRRRRRRRRRRRRRRRRRRRYKHAMjp8;+$7ZRRRR",
"RRRSO:nIRRRTIGABmcgarq7522<>;;-&&#@+oo#-5pMYRRRRRR",
"RRRRZ,X#%=&%#+O++#&-:<579qwtyyyasgxbBGIRRRRRYRRRRR",
"RRRRRRAzfffhcNAGJPTRRRRRRRRRRRRRRRRRRRRRRRRRRRRRRR",
"RRRRTRRRRRRRRRRRRRRRRRRRRRRRTRRRTRRRRRRRRRRRRRRRRR",
"RRRRRRRRRRRRRTRRRRRRRRRRRRRRRRRRRRRRRRRRRRRRRRRRRR",
"RRRRRRRRRRRRRRRRRRRRRRRRRRRRRRRRRRRRRRRRRRRRRRRRRR",
"RRRRRRRRRRRRRRRRRRRRRRRRRRRRRRRRRRRRRRRRRRRRRRRRRR",
"RRRRRRRRRRRRRRRRRRRRRRRRRRRRRRRRRRRRRRRRRRRRRRRRRR",
"RRRRRRRRRRRRRRRRRRRRRRRRRRRRRRRRRRRRRRRRRRRRRRRRRR",
"RRRRRRRRRRRRRRRRRRRRRRRRRRRRRRRRRRRRRRRRRRRRRRRRRR",
"RRRRRRRRRRRRRRRRRRRRRRRRRRRRRRRRRRRRRRRRRRRRRRRRRR",
"RRRRRRRRRRRRRRRRRRRRRRRRRRRRRRRRRRRRRRRRRRRRRRRRRR",
"RRRRRRRRRRRRRRRRRRRRRRRRRRRRRRRRRRRRRRRRRRRRRRRRRR",
"RRRRRRRRRRRRRRRRRRRRRRRRRRRRRRRRRRRRRRRRRRRRRRRRRR",
"RRRRRRRRRRRRRRRRRRRRRRRRRRRRRRRRRRRRRRRRRRRRRRRRRR",
"RRRRRRRRRRRRRRRRRRRRRRRRRRRRRRRRRRRRRRRRRRRRRRRRRR"
};
