/* XPM */
static const char *aXRlbQ__[] = {
/* columns rows colors chars-per-pixel */
"50 50 168 2 ",
"   c #D6361E",
".  c #D7371F",
"X  c #D63722",
"o  c #D73822",
"O  c #D73823",
"+  c #D63A23",
"@  c #D63A24",
"#  c #D73B24",
"$  c #D73B25",
"%  c #D73C26",
"&  c #D83923",
"*  c #D83924",
"=  c #D93A25",
"-  c #DA3B26",
";  c #D83C26",
":  c #D83D27",
">  c #D73F2A",
",  c #D73E2C",
"<  c #D83D29",
"1  c #D93E2A",
"2  c #DA3F2B",
"3  c #D9412A",
"4  c #D8402B",
"5  c #D8412C",
"6  c #D9412C",
"7  c #D9422D",
"8  c #D8432D",
"9  c #D9422F",
"0  c #DA432E",
"q  c #D9442E",
"w  c #DA452F",
"e  c #DA4330",
"r  c #D94430",
"t  c #DA4531",
"y  c #DB4630",
"u  c #D94632",
"i  c #D84732",
"p  c #DB4632",
"a  c #DA4733",
"s  c #DC4733",
"d  c #D94634",
"f  c #DA4735",
"g  c #DA4831",
"h  c #D94833",
"j  c #D94835",
"k  c #DB4834",
"l  c #DB4836",
"z  c #DA4936",
"x  c #DB4A37",
"c  c #DC4937",
"v  c #DC4B36",
"b  c #DA4938",
"n  c #DB4A39",
"m  c #DC4B38",
"M  c #DC4B3A",
"N  c #DA4C38",
"B  c #DB4D39",
"V  c #DB4C3B",
"C  c #DC4F3B",
"Z  c #DD523F",
"A  c #DD5441",
"S  c #DC5744",
"D  c #DD5845",
"F  c #DD5847",
"G  c #DD5A46",
"H  c #DE5948",
"J  c #DD5A48",
"K  c #DE5B49",
"L  c #DF5C4A",
"P  c #DE5C4C",
"I  c #DE5F4E",
"U  c #DF604F",
"Y  c #DF6A59",
"T  c #E06754",
"R  c #E06756",
"E  c #E26A5A",
"W  c #E16C5B",
"Q  c #E26D5C",
"!  c #E36F60",
"~  c #E17060",
"^  c #E37365",
"/  c #E37566",
"(  c #E47667",
")  c #E47969",
"_  c #E67C6C",
"`  c #E47D6E",
"'  c #E57D70",
"]  c #E67F70",
"[  c #E8887A",
"{  c #E88E83",
"}  c #E79388",
"|  c #E89688",
" . c #E9958A",
".. c #EB948B",
"X. c #E9978B",
"o. c #EC958B",
"O. c #EB978C",
"+. c #EA988C",
"@. c #EA988D",
"#. c #EC9C91",
"$. c #EB9E94",
"%. c #EC9F95",
"&. c #EBA194",
"*. c #EDA096",
"=. c #EEA197",
"-. c #ECA39A",
";. c #EDA39A",
":. c #EDA79D",
">. c #EEAAA1",
",. c #EFAFA5",
"<. c #EEAFA6",
"1. c #EEB2A8",
"2. c #F1B2AB",
"3. c #F0B4AA",
"4. c #F0B5AD",
"5. c #F0BBB3",
"6. c #F2C0B9",
"7. c #F3C3BF",
"8. c #F3C4BE",
"9. c #F2C5BF",
"0. c #F4C7C1",
"q. c #F3C8C1",
"w. c #F4C9C3",
"e. c #F4CDC6",
"r. c #F5CEC9",
"t. c #F6D1CB",
"y. c #F5D3CA",
"u. c #F6D0CD",
"i. c #F5D2CC",
"p. c #F6D7D4",
"a. c #F7D8D3",
"s. c #F8DBD7",
"d. c #F7DEDA",
"f. c #F9DDD9",
"g. c #F8DFDB",
"h. c #F9E0DC",
"j. c #FAE7E3",
"k. c #FCEAE8",
"l. c #FBECE9",
"z. c #FBEDEC",
"x. c #FCEEED",
"c. c #FBF0EE",
"v. c #FDF3F1",
"b. c #FDF3F2",
"n. c #FBF6F3",
"m. c #FDF8F5",
"M. c #FEF8F8",
"N. c #FEFAF9",
"B. c #FEF8FA",
"V. c #FFFBFA",
"C. c #FDFCF8",
"Z. c #FDFCFA",
"A. c #FEFDFB",
"S. c #FFFEFA",
"D. c #FDFBFC",
"F. c #FEFCFD",
"G. c #FFFCFD",
"H. c #FFFEFC",
"J. c #FEFFFD",
"K. c #FFFFFD",
"L. c #FFFDFE",
"P. c #FFFDFF",
"I. c #FDFFFE",
"U. c #FEFEFE",
"Y. c #FEFEFF",
"T. c #FFFEFF",
"R. c #FEFFFF",
"E. c white",
/* pixels */
"E.E.E.E.E.E.E.E.E.E.E.E.E.E.E.E.E.E.E.E.E.E.E.E.E.E.E.E.E.E.E.E.E.E.E.E.E.E.E.E.E.E.E.E.E.E.E.E.E.E.",
"E.E.E.E.E.E.E.E.E.E.E.E.E.E.E.E.E.E.E.E.E.E.E.E.E.E.E.E.E.E.E.E.E.E.E.E.E.E.E.E.E.E.E.E.E.E.E.E.E.E.",
"E.E.E.E.E.E.E.E.E.E.E.E.E.E.E.E.E.E.E.E.E.E.E.E.E.E.E.E.E.E.E.E.E.E.E.E.E.E.E.E.E.E.E.E.E.E.E.E.E.E.",
"E.E.E.E.E.E.E.E.E.E.E.E.E.E.E.E.E.E.E.E.E.E.E.E.E.E.E.E.E.E.E.E.E.E.E.E.E.E.E.E.E.E.E.E.E.E.E.E.E.E.",
"E.E.E.E.E.E.E.E.E.E.E.E.E.E.E.E.E.E.E.E.E.E.E.E.E.E.E.E.E.E.E.E.E.E.E.E.E.E.E.E.E.E.E.E.E.E.E.E.E.E.",
"E.E.E.E.E.E.E.E.E.E.E.E.E.E.E.E.E.E.E.E.E.E.E.E.E.E.E.E.E.E.E.E.E.E.E.E.E.E.E.E.E.E.E.E.E.E.E.E.E.E.",
"E.E.E.E.E.E.E.E.E.E.E.E.E.r.+...4.z.E.E.E.E.E.E.E.E.E.E.E.E.E.E.E.E.E.E.E.E.E.E.E.E.E.E.E.E.E.E.E.E.",
"E.E.E.E.E.E.E.E.E.E.E.E.#.& $ + $ V $.E.E.E.E.E.E.E.E.E.E.E.s.O.^ ! &.n.E.E.E.E.E.E.E.E.E.E.E.E.E.E.",
"E.E.E.E.E.E.E.E.E.E.E.s.1 a m x x a + W x.E.E.E.E.E.E.E.c.[ 7 $ 1 >   I k.E.E.E.E.E.E.E.E.E.E.E.E.E.",
"E.E.E.E.E.E.E.E.E.E.E.:.$ m a a g a m ; S l.E.E.E.E.E.t.Z $ a x x x V $ Y E.E.E.E.E.E.E.E.E.E.E.E.E.",
"E.E.E.E.E.E.E.E.E.E.E.+.$ x a a s a a V ; E E.E.Z.E.q.7 7 m a a a a a m $ 5.E.E.E.E.E.E.E.E.E.E.E.E.",
"E.E.E.E.E.E.E.E.E.E.E...$ x a a a a g a c + =.E.E.a.a w x a a a a f a b ; ` E.E.E.E.E.E.E.E.E.E.E.E.",
"E.E.E.E.E.E.E.E.E.E.E...$ x a a a a a a a a x z.N.D 7 x a a g g a a a x 4 R E.E.E.E.E.E.E.E.E.E.E.E.",
"E.E.E.E.E.E.E.E.E.E.E.o.$ c a a a a g a a m + 2.}   m g s a a a s g a a 7 U E.E.E.E.E.E.E.E.E.E.E.E.",
"E.E.E.E.E.E.E.E.E.E.E.=.$ m a g a a a a a g a K m a a a a a a a a a x x 4 R E.E.E.E.E.E.E.E.E.E.E.E.",
"E.E.E.E.E.E.E.E.E.E.E.1.$ x a a a x a a a a f w a g a x a a a a s a a x % ` E.E.E.E.E.E.E.E.E.E.E.E.",
"E.E.E.E.E.E.E.E.E.E.E.9.1 x a a a a a a a a a a a a a a a a a a a a a x = -.E.E.E.E.E.E.E.E.E.E.E.E.",
"E.E.E.E.E.E.E.E.E.E.E.f.a a a a a a a a a a a a a a a a a a a a a x a f 4 t.E.E.E.E.E.E.E.E.E.E.E.E.",
"E.E.E.E.E.E.E.E.E.E.E.m.D 7 a a a a a a a a a a a a a a a a a a a a a 7 K N.E.E.E.E.E.E.E.E.E.E.E.E.",
"E.E.E.E.E.E.E.E.E.E.E.E.' ; x a a a a a a a a a a a a a a a a a a a x $ { E.E.E.E.E.E.E.E.E.E.E.E.E.",
"E.E.E.E.E.E.E.E.E.E.D.E.<.$ x a a a a a a a a a a a a a a a a a a a x 4 u.E.E.E.E.E.E.E.E.E.E.E.E.E.",
"E.E.E.E.E.E.E.E.E.E.E.E.h.a a a a a a a a a a a a a a a a a a a g x 1 ~ E.E.E.E.E.E.E.E.E.E.E.E.E.E.",
"E.E.E.E.E.E.E.E.E.E.E.E.E.W , x a a a a a a a a a a a a a a a a a x = 0.E.E.E.E.E.E.E.E.E.E.E.E.E.E.",
"E.E.E.E.E.E.E.E.E.E.E.E.E.>.= x a a a a a a a a a a a a a a a a b ; / E.E.E.E.E.E.E.E.E.E.E.E.E.E.E.",
"E.E.E.E.E.E.E.E.E.E.E.E.E.j.x a a f a a a a a a a a s g a a a a a 7 s.E.E.E.E.E.E.E.E.E.E.E.E.E.E.E.",
"E.E.E.E.E.E.E.E.E.E.E.E.E.E.' ; x f a a g a x a s a a a s a f m = ..E.E.E.E.E.E.E.E.E.E.E.E.E.E.E.E.",
"E.E.E.E.E.E.E.E.E.E.E.E.Z.E.w.; x a s a a a g a a a f a a a x 7 L N.E.E.E.E.E.E.E.E.E.E.E.E.E.E.E.E.",
"E.E.E.E.E.E.E.E.E.E.E.E.E.E.E.R 4 x a a a a a a a a a a a a a 4 u.E.E.E.E.E.E.E.E.E.E.E.E.E.E.E.E.E.",
"E.E.E.E.E.E.E.E.E.E.E.E.E.D.E.3.$ x a a a g f g a a a a a x = -.E.Z.E.E.E.E.E.E.E.E.E.E.E.E.E.E.E.E.",
"E.E.E.E.E.E.E.E.E.E.E.E.E.E.E.N.D e a a a a a a a g x f x 1 Q E.E.E.E.E.E.E.E.E.E.E.E.E.E.E.E.E.E.E.",
"E.E.E.E.E.E.E.E.E.E.E.E.E.E.E.E.<.= x a a a a a a a a g a a f.E.Z.E.E.E.E.E.E.E.E.E.E.E.E.E.E.E.E.E.",
"E.E.E.E.E.E.E.E.E.E.E.E.E.E.E.E.E.I 4 x a a a a a a x m + :.E.N.E.E.E.E.E.E.E.E.E.E.E.E.E.E.E.E.E.E.",
"E.E.E.E.E.E.E.E.E.E.E.E.E.E.E.E.E.6.; x a a a a g a m $ ) E.E.E.E.E.E.E.E.E.E.E.E.E.E.E.E.E.E.E.E.E.",
"E.E.E.E.E.E.E.E.E.E.E.E.E.E.E.E.E.E.( ; x a a g a x 1 K b.E.E.E.E.E.E.E.E.E.E.E.E.E.E.E.E.E.E.E.E.E.",
"E.E.E.E.E.E.E.E.E.E.E.E.E.E.E.E.E.E.d.w a f a a a e x f.E.E.E.E.E.E.E.E.E.E.E.E.E.E.E.E.E.E.E.E.E.E.",
"E.E.E.E.E.E.E.E.E.E.E.E.E.E.E.E.E.Z.E.%.+ V g g b ; 7.E.Z.E.E.E.E.E.E.E.E.E.E.E.E.E.E.E.E.E.E.E.E.E.",
"E.E.E.E.E.E.E.E.E.E.E.E.E.E.E.E.E.E.E.E.W ; x x & %.E.Z.E.E.E.E.E.E.E.E.E.E.E.E.E.E.E.E.E.E.E.E.E.E.",
"E.E.E.E.E.E.E.E.E.E.E.E.E.E.E.E.E.E.E.E.k.C a ; ) E.E.E.E.E.E.E.E.E.E.E.E.E.E.E.E.E.E.E.E.E.E.E.E.E.",
"E.E.E.E.E.E.E.E.E.E.E.E.E.E.E.E.E.E.E.Z.E.e.X A b.E.E.E.E.E.E.E.E.E.E.E.E.E.E.E.E.E.E.E.E.E.E.E.E.E.",
"E.E.E.E.E.E.E.E.E.E.E.E.E.E.E.E.E.E.E.E.Z.E.9.p.E.E.E.E.E.E.E.E.E.E.E.E.E.E.E.E.E.E.E.E.E.E.E.E.E.E.",
"E.E.E.E.E.E.E.E.E.E.E.E.E.E.E.E.E.E.E.E.E.E.E.E.E.E.E.E.E.E.E.E.E.E.E.E.E.E.E.E.E.E.E.E.E.E.E.E.E.E.",
"E.E.E.E.E.E.E.E.E.E.E.E.E.E.E.E.E.E.E.E.E.E.E.E.E.E.E.E.E.E.E.E.E.E.E.E.E.E.E.E.E.E.E.E.E.E.E.E.E.E.",
"E.E.E.E.E.E.E.E.E.E.E.E.E.E.E.E.E.E.E.E.E.E.E.E.E.E.E.E.E.E.E.E.E.E.E.E.E.E.E.E.E.E.E.E.E.E.E.E.E.E.",
"E.E.E.E.E.E.E.E.E.E.E.E.E.E.E.E.E.E.E.E.E.E.E.E.E.E.E.E.E.E.E.E.E.E.E.E.E.E.E.E.E.E.E.E.E.E.E.E.E.E.",
"E.E.E.E.E.E.E.E.E.E.E.E.E.E.E.E.E.E.E.E.E.E.E.E.E.E.E.E.E.E.E.E.E.E.E.E.E.E.E.E.E.E.E.E.E.E.E.E.E.E.",
"E.E.E.E.E.E.E.E.E.E.E.E.E.E.E.E.E.E.E.E.E.E.E.E.E.E.E.E.E.E.E.E.E.E.E.E.E.E.E.E.E.E.E.E.E.E.E.E.E.E.",
"E.E.E.E.E.E.E.E.E.E.E.E.E.E.E.E.E.E.E.E.E.E.E.E.E.E.E.E.E.E.E.E.E.E.E.E.E.E.E.E.E.E.E.E.E.E.E.E.E.E.",
"E.E.E.E.E.E.E.E.E.E.E.E.E.E.E.E.E.E.E.E.E.E.E.E.E.E.E.E.E.E.E.E.E.E.E.E.E.E.E.E.E.E.E.E.E.E.E.E.E.E.",
"E.E.E.E.E.E.E.E.E.E.E.E.E.E.E.E.E.E.E.E.E.E.E.E.E.E.E.E.E.E.E.E.E.E.E.E.E.E.E.E.E.E.E.E.E.E.E.E.E.E.",
"E.E.E.E.E.E.E.E.E.E.E.E.E.E.E.E.E.E.E.E.E.E.E.E.E.E.E.E.E.E.E.E.E.E.E.E.E.E.E.E.E.E.E.E.E.E.E.E.E.E."
};
