/* XPM */
static char *player_final1685645550[] = {
/* columns rows colors chars-per-pixel */
"50 50 82 1 ",
"  c #000000",
". c #0D0A03",
"X c #160F04",
"o c #1A1207",
"O c #1B1308",
"+ c #231709",
"@ c #231A09",
"# c #35240D",
"$ c #38260E",
"% c #3B290D",
"& c #432E0F",
"* c #5C3F15",
"= c #76511C",
"- c #7E561E",
"; c #825A1F",
": c #815820",
"> c #895E21",
", c #8C6023",
"< c #A06E27",
"1 c #AB7626",
"2 c #B37B2B",
"3 c #B97E2D",
"4 c #BE812E",
"5 c #C58730",
"6 c #C68930",
"7 c #CE8D33",
"8 c #D39133",
"9 c #DD9735",
"0 c #DE9836",
"q c #EB9C2C",
"w c #E59D37",
"e c #EB9E32",
"r c #E49C38",
"t c #E89F38",
"y c #ECA237",
"u c #ECA239",
"i c #F2A63A",
"p c #F5A83C",
"a c #FBAC3D",
"s c #EEA642",
"d c #EDA945",
"f c #EEAC4D",
"g c #EEAE53",
"h c #EFB053",
"j c #EEB35B",
"k c #F0B056",
"l c #F1B45E",
"z c #EFB563",
"x c #EFB866",
"c c #F0B665",
"v c #F1B867",
"b c #F0BB6D",
"n c #F2BD72",
"m c #F0C076",
"M c #F3C17C",
"N c #F4C482",
"B c #F5C887",
"V c #F4C68A",
"C c #F4CA8C",
"Z c #F5CD93",
"A c #F6CF9A",
"S c #F5D19D",
"D c #F6D4A3",
"F c #F8D4A4",
"G c #F7D7A9",
"H c #F6D9AD",
"J c #F7DBB2",
"K c #F8DCB4",
"L c #F8DEB9",
"P c #F8E1BC",
"I c #F9E3C3",
"U c #FAE7CA",
"Y c #FAE9CF",
"T c #FBEBD4",
"R c #FDEFDC",
"E c #FCF1DF",
"W c #FCF2E3",
"Q c #FDF6EB",
"! c #FEF8EF",
"~ c #FFF7F0",
"^ c #FEFAF4",
"/ c #FFFFFE",
/* pixels */
"////////////////^/////////////////////////////////",
"///////////////////^WPDZCVCAKY!////^//////////////",
"////////////////^PMguqqqqqqqqesxSE////////////////",
"///////////^//QZfqqtuuuuuuuuuuuqqubI//////////////",
"//////////^/^AsqyuuuuuyuuuutuuuuuuqyvT////////////",
"///////////YgqyuuuuuuuuuuuuuuuuuuuuuqeZ///////////",
"//////////SyeuuuuuuuuuuuuuuuuuuuuuuuuuqjW/////////",
"/////////MquuuuuuuuuuuuuuuuuuuuuuuuuuuuesT////////",
"////////mquuyyuyutuuuuuuuuuuuuyiuuyuuuuutuT/^/////",
"///////NquuuuuuuuiuuuuuuuuyuuuutuuuyuuuuuyuW//////",
"////^/Dquuuuuuuuuueuuuuuuuuuuyuuuytuuuytuueh^/////",
"/////TeuuuuuuuupuuuuuyutyuuuuuuuuupiuuuuuuuqM/////",
"/////hyuuuuuuu04uiuuittiuuuuuuutui48iuuuuuuuqP////",
"////Squuuuuuu9@ *puttuituuuuuuuua; .5puuuuuueg////",
"///!dyuuuuuup2  Xruuuuutuuuueuutp#  ,aruuuuuuqF///",
"///Squyuuuuua2  Orutuuuiuyutiuitp%  ,ayuuuuuuyf^//",
"///geuyuuuurp2  Otuuuuuyuuyuuuuup%  ,atuyuuuuuqP/^",
"//Ueutiuuuuup3  Oturuyuuuuuuuuuup%  ,syuuuuuuuen//",
"^/Cquuuuuuutp3  Oruuuuuuuyuuuuuup%  ,auuyuuuuuysQ/",
"//ltuuuuuuutp3  Oruuuuuyuuuuuuurp%  ,auuuuuuuuueI/",
"/Quyuuuuuuuup3  otuuuuuuuuyuuuyup%  ,ayuutuuuuuqS/",
"/Teuuuuuuuutp3  owuuuuuuuuuuuuuup%  ,arutiuuuyuqm/",
"/Lquuuuuuuuup3  Otuuuuuuuuuuuuuup%  ,atyuuuuuuuez/",
"/Gquuuuuuuuua2  Xruuuuuuuyuuuuuui$  ,atuuuieuuueg/",
"/Squuuuuututp7  #iuuyuuuuuyuuuuua*  1ptuuuuiuuueg^",
"/Sqsuuuuuuuitp3;8ityuuuuuuuuuuuuur;<iuyuuyuuuyueg^",
"/Dquuuuuuuiuutpsiuuuuuuuuuuuuutuuuaauuuuuuuuuuuyh/",
"/Kquuuuuuuuuuutttuuuuuuuryuuuyuuuuueuuuuuuuyuuuej/",
"/Ueuuuuuuueutuyuuuuuuuupaiuyuituyyuyuuuyyuuuuuuqn/",
"/Wuuuuyuuuuuuuuuuuuuuui-$3pyuuyuuuuuuuuuuuutuusqZ/",
"//geuuuuituuuuuyuuuutp2  +iuuuituutuuyuuuyuuuuueK/",
"//Neuuyitittiuyuuyuuui5  &ituyuuuuuuuuiyuuuuuuuuW/",
"//Kquuuuuuuuuuuyyuiyuup3:9ituituuuuuuuuuuuittuec//",
"//^dyuuuuuyuuuuuuuuuuyupaiuuuuuuuuuuuuuuutuuiuqG//",
"///CquuuuuuuuuuiuuuuuyyuttuuuuueeiuuuuuuuuuuttsQ//",
"///EuuuuuuuuuuuyuuyutuuuuuuuuuuiuuuueiuuuuuuuqC///",
"////VquuuyuuuuuuuyuuuuuuuuuyuuutuuuuuuyuuuuuusQ///",
"////!suuuuuuuyuuuuuuuuyuuuuuuuyuuutiuuuuuuuuqS////",
"///^/Jquuuuuuuuyuuuuuuuuuuuutuuuuuutuyuuuuuel/////",
"//////MquuyuuuuuuyuuuuuuuuuuitituuuuuuuuuuyuE/////",
"///////lquuuuuuuuuuuuuuyuyuuuuuuuuuuuuuuuuqI//////",
"///////~heuuuuuuuuyyuuuuuuuuuuyuuuuyuuuuueH/^/////",
"////////~hquuuuuyuuyuuuuuuuuuuuuuyuuuuuueH////////",
"//////////nquuyuuuuuyuuuuyuuyuuuuuuuuseuI/////////",
"///////////SuquuuuuuuuuuuuuuuuuuuuuseqcW//////////",
"////////////RbqyuuuuuuuuuuuuyuuuuuyqdG////////////",
"//////////////IvtqeuusuuuuuuusuyqqdAQ/////////////",
"////////////////TCgyqqqeeeeqqqesnK^///////////////",
"///////////////////TJZnvjlxbBDU!///^//////////////",
"//////////////////////////////////////////////////"
};
