/* XPM */
static char *wall_final1685644347[] = {
/* columns rows colors chars-per-pixel */
"50 50 78 1 ",
"  c #7E3E00",
". c #7F4203",
"X c #824305",
"o c #834508",
"O c #864B0D",
"+ c #884D0F",
"@ c #874C10",
"# c #894E12",
"$ c #8B5116",
"% c #8D551C",
"& c #8F581F",
"* c #91551D",
"= c #90591F",
"- c #8F5921",
"; c #905720",
": c #905A22",
"> c #935F29",
", c #946027",
"< c #96632D",
"1 c #966230",
"2 c #996633",
"3 c #9A6936",
"4 c #9D6C3B",
"5 c #9F7140",
"6 c #A17344",
"7 c #A47648",
"8 c #A5794C",
"9 c #A77B51",
"0 c #A97D53",
"q c #AB8156",
"w c #AD845B",
"e c #AE885F",
"r c #B28B64",
"t c #B58E6A",
"y c #B6926D",
"u c #B8926E",
"i c #B79571",
"p c #B99673",
"a c #BB9A76",
"s c #BD9D7B",
"d c #C09F7E",
"f c #BFA081",
"g c #C19E80",
"h c #C2A384",
"j c #C4A689",
"k c #C6AA8D",
"l c #C9AE92",
"z c #CBB196",
"x c #CDB59C",
"c c #CEB9A1",
"v c #D1BBA4",
"b c #D4BFA9",
"n c #D6C1AB",
"m c #D8C3AE",
"M c #D7C4B1",
"N c #D9C5B3",
"B c #DAC8B6",
"V c #DECEBD",
"C c #DED1C0",
"Z c #E1D3C3",
"A c #E4D6C9",
"S c #E6DACD",
"D c #E8D8C9",
"F c #E7DCD2",
"G c #E9DDD3",
"H c #EBE1D7",
"J c #EDE4DB",
"K c #EFE8DE",
"L c #EFE6E1",
"P c #EFE9E1",
"I c #F0E7E0",
"U c #F1EAE3",
"Y c #F4EFE9",
"T c #F6F2ED",
"R c #F7F5F1",
"E c #F9F6F2",
"W c #FAF8F6",
"Q c #FFFFFE",
/* pixels */
":::;-:;-::$xQk@>&:-:--:::&:>+vQS*:--:--:-;-:::::*-",
":-:-::::->#yQs@,&-=::=-:;::=:UQZ$:-:::-:::::-:-:::",
":-:;;:;---$qQs@::::::&=:-::#wQQS%:-:::-;-;;--::;:;",
";:=::::&--$qQk@>:-:=:-::::>#vQQG&:::*::;-;:::*:&-:",
"&:-::-::->#uQz#>::>:::=&%*#2WQQU:%&*:-:>::&&-::::&",
":::=;::-;>#NQmO:%##O+$:2464VQQQQ0<<:%#+#$%%&>::>::",
"&&:>:::&&O6QQW7:6whxBAIEQQQQYYYEUHGHSVliq64>%##O+%",
"<&##$$%>36AQQQEJISBxaUQY8873<>,<<<260dQQQIAABNxmVG",
"ELAZVSKYYPGmjuq5>$OO#GQC+%$&&&&%&%&%#@SQQy$350riaw",
"9remQYq83>$$##$**:>%8QQy#>:::::;::;:>#iQQ9$-%$##@#",
"$$XtQBo$&&:::::::::@jQU>&:::--:;-:-*:&3WQ6$-::-::>",
":>$wQv$,:&-:::::&:&<YQx@::=::*:::::::*3EQ6%:::::;:",
"::%3Qx@:&-;-::--::#hQQq$:;::::;:::::-&3QW4&:::*:;:",
"::-%Yx+>;:;:::;:::%SQF%:::&::-;:---::&<EW3&::;::::",
":=:%Yx#::::::::;:$qQQy#::::;::-:;-:&;&>PQ4$::::=;;",
":>:>EZ#>::;-*-:&:#BQB$-&&&&:::>:::-:-:%GQ5%::=::::",
"##O#PQ3@$%%&&&=:%6QJ,>,>---%+O@$%&:::,$NQ9$>:>:::&",
"0ijvQQUSSSHJHJJIUQQQRRTRRWEPAxs03>$#@@ aQiX%$$#O+>",
"IFVvseereqq0UQj7qyuurwwradfhxVJTEUFAMcjBQA909wyzDT",
":#OO#$#$$$$$SQyo%@$#$$##@##+@@$>4EZyzxvnNCSHHHSZlq",
";:>::::-::>$CQh#>::::>:>::>::>-%$Rj +OO###$&&%##O$",
":-:::-:>-&:$zQj+:-::==-:::;-:--%4Qd$>>:::>:::*::>:",
":::=::::::,+jQk+>::-::-;::&;::>+iQr#:::::::---::=:",
"-:*:::-:---@iQl#:-=:::-:::>-::-#BQw$:&=::=-&-;:-:=",
":::::=::-:,$rQz#>::&&&--:::*::%2EQw$>&::*:::::*:=:",
"-*::>-=&%$%orQuo%%&&:>>>:::::>#dQQ0$:;::-&:=--:::;",
">:&$##:<6896xQd763>%##@$$*::,:$AQW4&>:>::>>::>::::",
"#$<0kVKQQQQQQQQQQQQYAcsw6>%$$o6QQE,@$#$#$##+#O####",
"aZQQQQQmsw76659iklvVKQQQQQTJABYQQQAAASAABnxkjhiyal",
"QQBy2xQ&O#$%$&$##@@#%>6ETkmVAKHHPPTTYYUYQQQQQWQQQQ",
"z5@#ojQ<->::::::>:>::$4Qv.$@$$%&--;;;-@wQWQA2:121,",
"#$>>#zR;;::::::-&::=:#hQe$,::-:=;&-&&>#MQQm&%=*%&&",
">::>@xU%:::::--::;--:$HY=::=:;-::-::&%3EQv#;>;::::",
";;::OMG#:-::*:::::::%8Qm#::::-:-:;:->+hQV#::=:::&:",
"::*:#AV#>::&:;:;&:::#VQj@>:::;:-=::;-&GQ7$:::-:*:;",
"::::$Un+:=;:-:-::=>#rQQw$-*::;:;;-::&4QV#>=::::-::",
":=>&-Qk#,::>::>:>::&HQQ7%:>;:;-:::->#eQe$:-;::::;:",
">:-$4Qro$##@#O+++@.kQQW2+&%%&:*:=;;>OkE&=;:--:::>:",
"O#&%eQy6tyisjxMMBbvQQQWw752<>>:;*&&-ONxo:&&&$$###$",
"BAGHUYLUUEQQQHAGGSAVCAKEEUUYUUJKYTYYYQEUUIJGZmxiuV",
"zaw63>:>#0QQW<o$###$#$:<<<265aQQhpshvnVGKTQQQQQQQQ",
"O@#%%&&;:;HQU,::::>:->*&&&&%ObQzX$#++##$&$jQlejvZY",
">::::::;:#xQS$:::::&::=:-:>$9QT<=>:>:::::OkQ5o$##2",
"::-::-:;:$wQS%::-:;::-:&:-:%CQa#:--::::->+zQ1*>>:&",
":--:::-::%<EU:::::;::-:-;-#tQJ;::::-::;;>#nW>&::::",
"&:&::-::->#CW,=::::-:::-:&<YQq$---::-::-:OnE=&*:;:",
":;:;:*&:--#hQ3%::-::&::->#MQxO>:--=-:*:::#nT&;-:;-",
"-:-:-:::->$0Q0$::-*-;:-:@tQY<&=&;-::-;:::#VT:&:::;",
"-:-::::;::%3Qr$--::&:::*,TQx+:--:::-:;-:>@ZT;;;---",
":-*::-:-;:-%Uu#:-::::-:#lQQq%::&-:*:::-::$SY;;;>-:"
};
